<svg width="24" height="22" viewBox="0 0 24 22" fill="none" xmlns="http://www.w3.org/2000/svg">
<path fill-rule="evenodd" clip-rule="evenodd" d="M22.0571 7.7H1.96905C1.44524 7.7 1.02619 7.25842 1 6.70645C1 2.26308 4.69286 0 12 0C19.3071 0 23 2.26308 23 6.70645C23 7.25842 22.581 7.7 22.0571 7.7ZM24 11.55C24 10.6362 23.2674 9.9 22.3579 9.9H1.64211C0.732632 9.9 0 10.6362 0 11.55C0 12.4638 0.732632 13.2 1.64211 13.2H22.3579C23.2674 13.2 24 12.4638 24 11.55ZM22.0321 15.4H1.94174C1.41855 15.4 1 15.8693 1 16.456V17.5707C1 20.0053 2.77883 22 4.95006 22H19.0499C21.2212 22 23 20.0053 23 17.5707V16.456C22.9738 15.8693 22.5553 15.4 22.0321 15.4Z" fill="#F2F2F3"/>
</svg>
