<svg width="25" height="24" viewBox="0 0 25 24" fill="none" xmlns="http://www.w3.org/2000/svg">
<path d="M10.8849 2.65561C11.0818 2.18895 10.5397 1.75899 10.1301 2.05689L1.91184 8.03382C1.65309 8.222 1.50001 8.52262 1.50001 8.84256V13.4828C1.50001 13.6932 1.63171 13.8811 1.82948 13.9529L4.65637 14.9785C5.15685 15.1601 5.71185 14.9177 5.91879 14.4271L10.8849 2.65561Z" fill="#F2F2F3"/>
<path d="M2.12116 15.9076C1.82217 15.7916 1.50001 16.0122 1.5 16.3329C1.5 16.4889 1.57968 16.634 1.71127 16.7178L10.7307 22.4574C10.8326 22.5223 10.9408 22.3844 10.8536 22.3008L5.72556 17.3879C5.63043 17.2968 5.51823 17.2254 5.39541 17.1777L2.12116 15.9076Z" fill="#F2F2F3"/>
<path d="M14.1465 22.3008C14.0592 22.3844 14.1674 22.5223 14.2693 22.4574L23.2887 16.7178C23.4203 16.634 23.5 16.4889 23.5 16.3329C23.5 16.0122 23.1778 15.7916 22.8788 15.9076L19.6046 17.1777C19.4818 17.2254 19.3696 17.2968 19.2745 17.3879L14.1465 22.3008Z" fill="#F2F2F3"/>
<path d="M23.1705 13.9529C23.3683 13.8811 23.5 13.6932 23.5 13.4828V8.84256C23.5 8.52262 23.3469 8.222 23.0882 8.03382L14.8699 2.05689C14.4603 1.75899 13.9183 2.18895 14.1151 2.65561L19.0812 14.4271C19.2882 14.9177 19.8432 15.1601 20.3436 14.9785L23.1705 13.9529Z" fill="#F2F2F3"/>
<path d="M13.2142 20.9615C12.8221 21.3616 12.1779 21.3616 11.7858 20.9615L7.60635 16.6968C7.33068 16.4155 7.2458 15.9986 7.38954 15.6319L11.569 4.97004C11.9009 4.12332 13.0991 4.12333 13.431 4.97004L17.6105 15.6319C17.7542 15.9986 17.6693 16.4155 17.3937 16.6968L13.2142 20.9615Z" fill="#F2F2F3"/>
</svg>
