<svg width="22" height="22" viewBox="0 0 22 22" fill="none" xmlns="http://www.w3.org/2000/svg">
<path fill-rule="evenodd" clip-rule="evenodd" d="M0 2C0 0.89543 0.89543 0 2 0H20C21.1046 0 22 0.895431 22 2V20C22 21.1046 21.1046 22 20 22H2C0.89543 22 0 21.1046 0 20V2ZM5.5 7C6.0523 7 6.5 6.5523 6.5 6C6.5 5.4477 6.0523 5 5.5 5C4.9477 5 4.5 5.4477 4.5 6C4.5 6.5523 4.9477 7 5.5 7ZM7.5 6C7.5 5.44772 7.94772 5 8.5 5H16.5C17.0523 5 17.5 5.44772 17.5 6C17.5 6.55228 17.0523 7 16.5 7H8.5C7.94772 7 7.5 6.55228 7.5 6ZM8.5 10C7.94772 10 7.5 10.4477 7.5 11C7.5 11.5523 7.94772 12 8.5 12H16.5C17.0523 12 17.5 11.5523 17.5 11C17.5 10.4477 17.0523 10 16.5 10H8.5ZM8.5 15C7.94772 15 7.5 15.4477 7.5 16C7.5 16.5523 7.94772 17 8.5 17H16.5C17.0523 17 17.5 16.5523 17.5 16C17.5 15.4477 17.0523 15 16.5 15H8.5ZM5.5 12C6.0523 12 6.5 11.5523 6.5 11C6.5 10.4477 6.0523 10 5.5 10C4.9477 10 4.5 10.4477 4.5 11C4.5 11.5523 4.9477 12 5.5 12ZM5.5 17C6.0523 17 6.5 16.5523 6.5 16C6.5 15.4477 6.0523 15 5.5 15C4.9477 15 4.5 15.4477 4.5 16C4.5 16.5523 4.9477 17 5.5 17Z" fill="#8585AD"/>
</svg>
